<?xml version="1.0" encoding="UTF-8" standalone="no"?>
<svg xmlns:dc="http://purl.org/dc/elements/1.1/"
  xmlns:cc="http://creativecommons.org/ns#"
  xmlns:rdf="http://www.w3.org/1999/02/22-rdf-syntax-ns#"
  xmlns:svg="http://www.w3.org/2000/svg"
  xmlns="http://www.w3.org/2000/svg"
  xmlns:xlink="http://www.w3.org/1999/xlink" id="svg7" xml:space="preserve" viewBox="0 0 1024 1024" y="0px" x="0px" version="1.1">
  <metadata id="metadata13">
    <rdf:RDF>
      <cc:Work rdf:about="">
        <dc:format>image/svg+xml</dc:format>
        <dc:type rdf:resource="http://purl.org/dc/dcmitype/StillImage" />
      </cc:Work>
    </rdf:RDF>
  </metadata>
  <defs id="defs11" />
  <g id="g3" transform="matrix(1.5,0,0,1.5,512,512)">
    <path style="fill:#e9ecef" d="m 152.4,-201.9 c 46.6,26 86.9,68.5 97.2,116.9 10.4,48.3 -9.3,102.5 -32.2,150.3 -22.9,47.8 -49,89.1 -85.8,121.8 -36.8,32.8 -84.2,56.8 -135.5,62.2 -51.4,5.4 -106.6,-7.9 -148.6,-38.9 -42,-31 -70.8,-79.8 -87.5,-132.2 -16.8,-52.4 -21.5,-108.6 -2.2,-153.4 19.4,-44.8 62.9,-78.2 107.3,-105 44.4,-26.7 89.6,-46.8 138.7,-52 49.1,-5.3 102,4.2 148.6,30.3 z" id="path" />
  </g>
  <animate fill="freeze" values="M120.2,-176.8C149.6,-144.2,162.8,-100.7,175.5,-57.9C188.3,-15,200.7,27.1,195.6,70.1C190.6,113,168.2,156.8,132.7,178C97.2,199.1,48.6,197.5,4.9,190.8C-38.8,184.1,-77.6,172.1,-115.3,151.7C-153,131.3,-189.7,102.4,-205.6,64.2C-221.6,26.1,-216.8,-21.4,-204,-67.9C-191.2,-114.4,-170.2,-160,-134.9,-190.6C-99.5,-221.3,-49.8,-237.2,-2.2,-234.2C45.5,-231.2,90.9,-209.5,120.2,-176.8Z; M152.4,-201.9C199,-175.9,239.3,-133.4,249.6,-85C260,-36.7,240.3,17.5,217.4,65.3C194.5,113.1,168.4,154.4,131.6,187.1C94.8,219.9,47.4,243.9,-3.9,249.3C-55.3,254.7,-110.5,241.4,-152.5,210.4C-194.5,179.4,-223.3,130.6,-240,78.2C-256.8,25.8,-261.5,-30.4,-242.2,-75.2C-222.8,-120,-179.3,-153.4,-134.9,-180.2C-90.5,-206.9,-45.3,-227,3.8,-232.2C52.9,-237.5,105.8,-228,152.4,-201.9Z; M101.9,-120.6C144.2,-109.5,199.1,-96,223.6,-62.7C248.2,-29.4,242.5,23.8,220.4,65.3C198.2,106.8,159.7,136.8,120.2,173.1C80.7,209.4,40.4,252.2,-4.7,258.7C-49.8,265.2,-99.5,235.3,-119,192.5C-138.5,149.7,-127.8,93.8,-144.4,46.1C-161,-1.6,-205.1,-41.3,-214.9,-88C-224.7,-134.6,-200.2,-188.3,-158.7,-199.6C-117.2,-210.9,-58.6,-180,-14.4,-160.1C29.8,-140.3,59.6,-131.6,101.9,-120.6Z; M113.1,-161.5C148.6,-129.9,180.8,-99.5,181.6,-66.3C182.3,-33.1,151.5,3.1,132.4,37.1C113.2,71.2,105.7,103.2,85.6,142.9C65.4,182.7,32.7,230.4,-3.9,235.8C-40.6,241.2,-81.1,204.3,-114.7,168.9C-148.3,133.5,-175,99.5,-198.1,57.5C-221.3,15.5,-240.9,-34.6,-221,-64.4C-201.2,-94.2,-141.7,-103.7,-98.3,-132.8C-54.9,-161.8,-27.4,-210.4,5.7,-218.2C38.8,-226.1,77.6,-193.1,113.1,-161.5Z; M102,-143.7C138.9,-113.5,180.3,-92.8,196.8,-59.7C213.4,-26.7,205.1,18.6,190.6,61.5C176.1,104.4,155.4,144.8,122.5,162.7C89.7,180.5,44.9,175.8,-1.2,177.4C-47.2,179,-94.4,187,-113.8,164.8C-133.1,142.5,-124.6,90.1,-143.6,43.8C-162.6,-2.6,-209.2,-42.9,-216.4,-85.7C-223.7,-128.5,-191.5,-173.9,-148.8,-202.2C-106.2,-230.5,-53.1,-241.7,-10.3,-227.6C32.5,-213.4,65,-173.9,102,-143.7Z; M120.2,-176.8C149.6,-144.2,162.8,-100.7,175.5,-57.9C188.3,-15,200.7,27.1,195.6,70.1C190.6,113,168.2,156.8,132.7,178C97.2,199.1,48.6,197.5,4.9,190.8C-38.8,184.1,-77.6,172.1,-115.3,151.7C-153,131.3,-189.7,102.4,-205.6,64.2C-221.6,26.1,-216.8,-21.4,-204,-67.9C-191.2,-114.4,-170.2,-160,-134.9,-190.6C-99.5,-221.3,-49.8,-237.2,-2.2,-234.2C45.5,-231.2,90.9,-209.5,120.2,-176.8Z" keySplines="0.9 0.1 0.1 0.9;0.9 0.1 0.1 0.9;0.9 0.1 0.1 0.9;0.9 0.1 0.1 0.9;0.9 0.1 0.1 0.9" calcMode="spline" keyTimes="0; 0.2; 0.4; 0.6; 0.8; 1" attributeName="d" repeatCount="indefinite" dur="20s" attributeType="XML" xlink:href="#path" />
  <path id="path5" transform="translate(153.6 243.2) scale(0.7)" fill="#111111" d="m607.81 349.43c-3.5431 0-6.799 0.47995-9.7676 1.3418-3.0643 0.86184-5.6491 2.1064-7.7558 3.8301-2.2025 1.7237-3.9271 3.8306-5.0762 6.3203-1.2449 2.4898-1.8184 5.3633-1.8184 8.6191 0 2.6813 0.38225 4.9793 1.3398 6.8945 0.86184 1.9152 2.2041 3.5422 3.9277 4.8828 1.7237 1.3406 3.9261 2.4897 6.6074 3.4473 2.5855 0.95761 5.6484 1.9156 9.0957 2.6816 3.0643 0.76608 5.8423 1.5327 8.332 2.2988 2.4898 0.76608 4.5009 1.5326 6.2246 2.4902 1.6279 0.9576 2.8725 2.1066 3.7344 3.4473 0.86184 1.3406 1.3398 2.8719 1.3398 4.7871 0 3.4474-1.3402 6.0322-4.0215 7.7559s-6.5108 2.5859-11.299 2.5859c-2.6813 0-5.1724-0.19106-7.5664-0.76562-2.394-0.57457-4.5964-1.2456-6.7031-2.1074-2.1067-0.86184-3.9248-1.8196-5.5527-2.9688-1.6279-1.0534-2.9701-2.1067-3.9277-3.2559l-4.1172 7.2793c3.8304 3.1601 8.0441 5.5537 12.736 7.1816 4.6922 1.6279 9.6726 2.3945 14.939 2.3945 3.4474 0 6.7033-0.2886 9.7676-1.0547 2.9686-0.76607 5.5534-1.9151 7.7559-3.4473s3.925-3.5435 5.2656-5.9375c1.2449-2.394 1.916-5.2656 1.916-8.5215 0-3.0643-0.57361-5.6511-1.627-7.7578s-2.5867-3.8292-4.5976-5.3613c-2.011-1.4364-4.4046-2.6811-7.2774-3.6387s-6.0331-1.9156-9.4805-2.6816c-3.0643-0.67032-5.7448-1.3414-7.9473-2.0117-2.2982-0.57456-4.1182-1.3393-5.6504-2.2012-1.5322-0.86184-2.5855-1.9153-3.2559-3.1602-0.76608-1.1491-1.0527-2.6825-1.0527-4.5977 0-3.4474 1.1489-6.1277 3.6387-8.1387 2.4898-1.9152 6.3191-2.9688 11.682-2.9688 2.0109 0 3.9266 0.28688 5.8418 0.66992s3.6397 0.95859 5.2676 1.6289c1.5322 0.67033 2.968 1.4351 4.3086 2.2012 1.2449 0.86184 2.2984 1.7241 3.0644 2.5859l4.0215-6.9902c-2.8728-2.2982-6.2244-4.214-9.8633-5.6504-3.7346-1.3406-7.8527-2.1074-12.449-2.1074zm-355.06 0.48047v7.6602h55.541v-7.6602zm74.549 0v67.988h8.6191v-67.988zm34.186 0v5.1699l8.6191 10.918 41.559 51.9h7.2793v-67.893h-8.6191v52.859l-42.135-52.955zm75.818 0 22.791 55.828 4.3086-9.8633-18.002-45.965zm54.008 0-22.406 57.168-4.2148 9.8633 0.48047 0.95703h7.4688l27.77-67.988zm27.57 0v21.066h8.6191v-13.406h36.676v-7.6602zm128.44 0v7.6602h55.541v-7.6602zm88.873 0-27.865 67.988h8.8106l22.695-58.029 3.6387-9.959zm11.014 9.2871-3.7344 10.152 8.6172 21.928h-17.045l-2.5859 6.7031h21.547l8.043 19.918h9.1934zm-471 6.9922v51.709h8.6192v-51.709zm394.57 0v51.709h8.6172v-51.709zm-309.3 2.2969v49.412h8.6192v-38.207zm157.4 11.109v22.023h8.6191v-14.842h31.889v-7.1816zm0 30.643v7.6602h46.156v-7.6602z" />
</svg>