<svg id="visual" viewBox="0 0 900 600" width="900" height="600" xmlns="http://www.w3.org/2000/svg" xmlns:xlink="http://www.w3.org/1999/xlink" version="1.1"><path d="M73 0L73.8 10C74.7 20 76.3 40 93.8 60C111.3 80 144.7 100 162 120C179.3 140 180.7 160 176.3 180C172 200 162 220 150.3 240C138.7 260 125.3 280 121.2 300C117 320 122 340 126.5 360C131 380 135 400 126.2 420C117.3 440 95.7 460 127.7 480C159.7 500 245.3 520 286.3 540C327.3 560 323.7 580 321.8 590L320 600L0 600L0 590C0 580 0 560 0 540C0 520 0 500 0 480C0 460 0 440 0 420C0 400 0 380 0 360C0 340 0 320 0 300C0 280 0 260 0 240C0 220 0 200 0 180C0 160 0 140 0 120C0 100 0 80 0 60C0 40 0 20 0 10L0 0Z" fill="#666666" stroke-linecap="round" stroke-linejoin="miter"></path></svg>