<svg id="visual" viewBox="0 0 900 600" width="900" height="600"
  xmlns="http://www.w3.org/2000/svg"
  xmlns:xlink="http://www.w3.org/1999/xlink" version="1.1">
  <g>
    <g transform="translate(106 19)">
      <path d="M104.1 -30.2C118 9 100.7 61.9 66.1 85.8C31.5 109.8 -20.5 104.7 -56.2 78.5C-91.9 52.3 -111.5 4.9 -99.4 -31.7C-87.3 -68.3 -43.7 -94.1 0.7 -94.3C45.1 -94.6 90.2 -69.3 104.1 -30.2Z" stroke="#87C1FE" fill="none" stroke-width="20"></path>
    </g>
    <g transform="translate(293 588)">
      <path d="M78.5 -25.6C89 6.9 76.1 46.9 50 65C23.9 83 -15.3 79.1 -42.1 59.3C-68.9 39.5 -83.2 3.9 -74.1 -26.6C-65.1 -57.1 -32.5 -82.5 0.7 -82.8C34 -83 68 -58.1 78.5 -25.6Z" stroke="#87C1FE" fill="none" stroke-width="20"></path>
    </g>
    <g transform="translate(701 475)">
      <path d="M51.8 -14.3C58.8 4.7 50.4 31.3 32.9 43.6C15.4 56 -11.3 54.1 -28.1 41.3C-44.8 28.5 -51.6 4.8 -45.3 -13.3C-39 -31.4 -19.5 -43.8 1.4 -44.2C22.4 -44.7 44.8 -33.3 51.8 -14.3Z" stroke="#87C1FE" fill="none" stroke-width="20"></path>
    </g>
  </g>
</svg>