<svg id="visual" viewBox="0 0 540 960" width="540" height="960"
  xmlns="http://www.w3.org/2000/svg"
  xmlns:xlink="http://www.w3.org/1999/xlink" version="1.1">
  <path d="M180 0L161.5 22.8C143 45.7 106 91.3 98.8 137C91.7 182.7 114.3 228.3 105.3 274C96.3 319.7 55.7 365.3 60.8 411.2C66 457 117 503 122 548.8C127 594.7 86 640.3 64.8 686C43.7 731.7 42.3 777.3 67.7 823C93 868.7 145 914.3 171 937.2L197 960L0 960L0 937.2C0 914.3 0 868.7 0 823C0 777.3 0 731.7 0 686C0 640.3 0 594.7 0 548.8C0 503 0 457 0 411.2C0 365.3 0 319.7 0 274C0 228.3 0 182.7 0 137C0 91.3 0 45.7 0 22.8L0 0Z" fill="#666666" stroke-linecap="round" stroke-linejoin="miter"></path>
</svg>