<svg id="visual" viewBox="0 0 540 960" width="540" height="960"
  xmlns="http://www.w3.org/2000/svg"
  xmlns:xlink="http://www.w3.org/1999/xlink" version="1.1">
  <path d="M96 0L90.8 12.3C85.7 24.7 75.3 49.3 66.7 74C58 98.7 51 123.3 50.7 148C50.3 172.7 56.7 197.3 57.8 221.8C59 246.3 55 270.7 47.2 295.2C39.3 319.7 27.7 344.3 29 369C30.3 393.7 44.7 418.3 45.5 443C46.3 467.7 33.7 492.3 26 517C18.3 541.7 15.7 566.3 20.2 591C24.7 615.7 36.3 640.3 38.7 664.8C41 689.3 34 713.7 34.8 738.2C35.7 762.7 44.3 787.3 47.7 812C51 836.7 49 861.3 48.8 886C48.7 910.7 50.3 935.3 51.2 947.7L52 960L0 960L0 947.7C0 935.3 0 910.7 0 886C0 861.3 0 836.7 0 812C0 787.3 0 762.7 0 738.2C0 713.7 0 689.3 0 664.8C0 640.3 0 615.7 0 591C0 566.3 0 541.7 0 517C0 492.3 0 467.7 0 443C0 418.3 0 393.7 0 369C0 344.3 0 319.7 0 295.2C0 270.7 0 246.3 0 221.8C0 197.3 0 172.7 0 148C0 123.3 0 98.7 0 74C0 49.3 0 24.7 0 12.3L0 0Z" fill="#666666" stroke-linecap="round" stroke-linejoin="miter"></path>
  <g transform="translate(511.9419280347056 991.7580681450061)">
    <path d="M124.7 -168.3C167.5 -140.5 212.1 -112 202.4 -80.3C192.6 -48.7 128.4 -13.9 100.5 20.5C72.6 54.9 81 88.9 70.3 111.3C59.6 133.6 29.8 144.3 -3.2 148.8C-36.2 153.2 -72.5 151.4 -89.5 131.1C-106.4 110.8 -104.1 71.9 -115.4 37.4C-126.8 2.9 -151.9 -27.3 -147 -49.5C-142.2 -71.8 -107.6 -86 -78.1 -118.1C-48.6 -150.2 -24.3 -200.1 8.3 -211.6C40.9 -223 81.9 -196.1 124.7 -168.3" fill="#666666"></path>
  </g>
</svg>