<svg xmlns="http://www.w3.org/2000/svg" width="700" height="900">
  <path d="M410,436L363,545L474,491Z" fill="rgb(130,130,130)" stroke="rgb(130,130,130)" stroke-width="1.51"/>
  <path d="M363,545L422,575L474,491Z" fill="rgb(136,136,136)" stroke="rgb(136,136,136)" stroke-width="1.51"/>
  <path d="M363,545L366,617L422,575Z" fill="rgb(135,135,135)" stroke="rgb(135,135,135)" stroke-width="1.51"/>
  <path d="M410,436L182,354L363,545Z" fill="rgb(113,113,113)" stroke="rgb(113,113,113)" stroke-width="1.51"/>
  <path d="M474,491L424,312L410,436Z" fill="rgb(126,126,126)" stroke="rgb(126,126,126)" stroke-width="1.51"/>
  <path d="M422,575L660,576L474,491Z" fill="rgb(150,150,150)" stroke="rgb(150,150,150)" stroke-width="1.51"/>
  <path d="M366,617L480,717L422,575Z" fill="rgb(147,147,147)" stroke="rgb(147,147,147)" stroke-width="1.51"/>
  <path d="M366,617L375,750L480,717Z" fill="rgb(151,151,151)" stroke="rgb(151,151,151)" stroke-width="1.51"/>
  <path d="M480,717L660,576L422,575Z" fill="rgb(159,159,159)" stroke="rgb(159,159,159)" stroke-width="1.51"/>
  <path d="M474,491L669,427L424,312Z" fill="rgb(137,137,137)" stroke="rgb(137,137,137)" stroke-width="1.51"/>
  <path d="M660,576L669,427L474,491Z" fill="rgb(157,157,157)" stroke="rgb(157,157,157)" stroke-width="1.51"/>
  <path d="M424,312L182,354L410,436Z" fill="rgb(108,108,108)" stroke="rgb(108,108,108)" stroke-width="1.51"/>
  <path d="M363,545L73,479L366,617Z" fill="rgb(117,117,117)" stroke="rgb(117,117,117)" stroke-width="1.51"/>
  <path d="M30,761L178,888L375,750Z" fill="rgb(133,133,133)" stroke="rgb(133,133,133)" stroke-width="1.51"/>
  <path d="M424,312L210,268L182,354Z" fill="rgb(94,94,94)" stroke="rgb(94,94,94)" stroke-width="1.51"/>
  <path d="M669,427L685,339L424,312Z" fill="rgb(141,141,141)" stroke="rgb(141,141,141)" stroke-width="1.51"/>
  <path d="M424,312L314,166L210,268Z" fill="rgb(94,94,94)" stroke="rgb(94,94,94)" stroke-width="1.51"/>
  <path d="M785,321L685,339L669,427Z" fill="rgb(156,156,156)" stroke="rgb(156,156,156)" stroke-width="1.51"/>
  <path d="M182,354L73,479L363,545Z" fill="rgb(101,101,101)" stroke="rgb(101,101,101)" stroke-width="1.51"/>
  <path d="M-8,424L73,479L20,320Z" fill="rgb(74,74,74)" stroke="rgb(74,74,74)" stroke-width="1.51"/>
  <path d="M580,151L314,166L424,312Z" fill="rgb(106,106,106)" stroke="rgb(106,106,106)" stroke-width="1.51"/>
  <path d="M685,339L580,151L424,312Z" fill="rgb(127,127,127)" stroke="rgb(127,127,127)" stroke-width="1.51"/>
  <path d="M73,479L18,554L366,617Z" fill="rgb(102,102,102)" stroke="rgb(102,102,102)" stroke-width="1.51"/>
  <path d="M-8,424L18,554L73,479Z" fill="rgb(81,81,81)" stroke="rgb(81,81,81)" stroke-width="1.51"/>
  <path d="M967,453L785,321L669,427Z" fill="rgb(159,159,159)" stroke="rgb(159,159,159)" stroke-width="1.51"/>
  <path d="M480,717L724,773L660,576Z" fill="rgb(180,180,180)" stroke="rgb(180,180,180)" stroke-width="1.51"/>
  <path d="M642,890L724,773L480,717Z" fill="rgb(190,190,190)" stroke="rgb(190,190,190)" stroke-width="1.51"/>
  <path d="M685,339L744,245L580,151Z" fill="rgb(139,139,139)" stroke="rgb(139,139,139)" stroke-width="1.51"/>
  <path d="M878,623L669,427L660,576Z" fill="rgb(175,175,175)" stroke="rgb(175,175,175)" stroke-width="1.51"/>
  <path d="M785,321L744,245L685,339Z" fill="rgb(149,149,149)" stroke="rgb(149,149,149)" stroke-width="1.51"/>
  <path d="M20,320L73,479L182,354Z" fill="rgb(79,79,79)" stroke="rgb(79,79,79)" stroke-width="1.51"/>
  <path d="M20,320L182,354L94,208Z" fill="rgb(72,72,72)" stroke="rgb(72,72,72)" stroke-width="1.51"/>
  <path d="M94,208L182,354L210,268Z" fill="rgb(77,77,77)" stroke="rgb(77,77,77)" stroke-width="1.51"/>
  <path d="M375,750L483,925L480,717Z" fill="rgb(167,167,167)" stroke="rgb(167,167,167)" stroke-width="1.51"/>
  <path d="M321,1034L483,925L375,750Z" fill="rgb(171,171,171)" stroke="rgb(171,171,171)" stroke-width="1.51"/>
  <path d="M232,63L94,208L210,268Z" fill="rgb(70,70,70)" stroke="rgb(70,70,70)" stroke-width="1.51"/>
  <path d="M30,761L375,750L366,617Z" fill="rgb(132,132,132)" stroke="rgb(132,132,132)" stroke-width="1.51"/>
  <path d="M483,925L642,890L480,717Z" fill="rgb(184,184,184)" stroke="rgb(184,184,184)" stroke-width="1.51"/>
  <path d="M18,554L30,761L366,617Z" fill="rgb(110,110,110)" stroke="rgb(110,110,110)" stroke-width="1.51"/>
  <path d="M-7,716L30,761L18,554Z" fill="rgb(98,98,98)" stroke="rgb(98,98,98)" stroke-width="1.51"/>
  <path d="M-178,618L-7,716L18,554Z" fill="rgb(91,91,91)" stroke="rgb(91,91,91)" stroke-width="1.51"/>
  <path d="M314,166L232,63L210,268Z" fill="rgb(78,78,78)" stroke="rgb(78,78,78)" stroke-width="1.51"/>
  <path d="M465,22L232,63L314,166Z" fill="rgb(81,81,81)" stroke="rgb(81,81,81)" stroke-width="1.51"/>
  <path d="M580,151L483,26L314,166Z" fill="rgb(99,99,99)" stroke="rgb(99,99,99)" stroke-width="1.51"/>
  <path d="M595,46L483,26L580,151Z" fill="rgb(107,107,107)" stroke="rgb(107,107,107)" stroke-width="1.51"/>
  <path d="M232,63L78,152L94,208Z" fill="rgb(62,62,62)" stroke="rgb(62,62,62)" stroke-width="1.51"/>
  <path d="M94,208L-19,207L20,320Z" fill="rgb(60,60,60)" stroke="rgb(60,60,60)" stroke-width="1.51"/>
  <path d="M483,26L465,22L314,166Z" fill="rgb(90,90,90)" stroke="rgb(90,90,90)" stroke-width="1.51"/>
  <path d="M178,888L191,930L375,750Z" fill="rgb(146,146,146)" stroke="rgb(146,146,146)" stroke-width="1.51"/>
  <path d="M114,1009L191,930L178,888Z" fill="rgb(139,139,139)" stroke="rgb(139,139,139)" stroke-width="1.51"/>
  <path d="M909,830L878,623L724,773Z" fill="rgb(196,196,196)" stroke="rgb(196,196,196)" stroke-width="1.51"/>
  <path d="M724,773L878,623L660,576Z" fill="rgb(187,187,187)" stroke="rgb(187,187,187)" stroke-width="1.51"/>
  <path d="M768,131L595,46L580,151Z" fill="rgb(123,123,123)" stroke="rgb(123,123,123)" stroke-width="1.51"/>
  <path d="M785,321L858,306L744,245Z" fill="rgb(148,148,148)" stroke="rgb(148,148,148)" stroke-width="1.51"/>
  <path d="M967,453L858,306L785,321Z" fill="rgb(155,155,155)" stroke="rgb(155,155,155)" stroke-width="1.51"/>
  <path d="M483,26L508,-165L465,22Z" fill="rgb(91,91,91)" stroke="rgb(91,91,91)" stroke-width="1.51"/>
  <path d="M768,131L580,151L744,245Z" fill="rgb(135,135,135)" stroke="rgb(135,135,135)" stroke-width="1.51"/>
  <path d="M642,890L657,935L724,773Z" fill="rgb(206,206,206)" stroke="rgb(206,206,206)" stroke-width="1.51"/>
  <path d="M483,925L657,935L642,890Z" fill="rgb(199,199,199)" stroke="rgb(199,199,199)" stroke-width="1.51"/>
  <path d="M643,1019L657,935L636,1025Z" fill="rgb(206,206,206)" stroke="rgb(206,206,206)" stroke-width="1.51"/>
  <path d="M858,306L768,131L744,245Z" fill="rgb(141,141,141)" stroke="rgb(141,141,141)" stroke-width="1.51"/>
  <path d="M-8,424L-169,577L18,554Z" fill="rgb(81,81,81)" stroke="rgb(81,81,81)" stroke-width="1.51"/>
  <path d="M20,320L-153,274L-8,424Z" fill="rgb(64,64,64)" stroke="rgb(64,64,64)" stroke-width="1.51"/>
  <path d="M78,152L-19,207L94,208Z" fill="rgb(57,57,57)" stroke="rgb(57,57,57)" stroke-width="1.51"/>
  <path d="M-89,158L-19,207L78,152Z" fill="rgb(50,50,50)" stroke="rgb(50,50,50)" stroke-width="1.51"/>
  <path d="M191,930L321,1034L375,750Z" fill="rgb(157,157,157)" stroke="rgb(157,157,157)" stroke-width="1.51"/>
  <path d="M191,930L114,1009L321,1034Z" fill="rgb(146,146,146)" stroke="rgb(146,146,146)" stroke-width="1.51"/>
  <path d="M30,761L17,881L178,888Z" fill="rgb(122,122,122)" stroke="rgb(122,122,122)" stroke-width="1.51"/>
  <path d="M-114,842L17,881L30,761Z" fill="rgb(111,111,111)" stroke="rgb(111,111,111)" stroke-width="1.51"/>
  <path d="M878,623L967,453L669,427Z" fill="rgb(170,170,170)" stroke="rgb(170,170,170)" stroke-width="1.51"/>
  <path d="M979,88L861,14L768,131Z" fill="rgb(126,126,126)" stroke="rgb(126,126,126)" stroke-width="1.51"/>
  <path d="M595,46L619,-25L483,26Z" fill="rgb(103,103,103)" stroke="rgb(103,103,103)" stroke-width="1.51"/>
  <path d="M311,-179L174,-68L232,63Z" fill="rgb(61,61,61)" stroke="rgb(61,61,61)" stroke-width="1.51"/>
  <path d="M768,131L619,-25L595,46Z" fill="rgb(118,118,118)" stroke="rgb(118,118,118)" stroke-width="1.51"/>
  <path d="M636,1025L657,935L483,925Z" fill="rgb(198,198,198)" stroke="rgb(198,198,198)" stroke-width="1.51"/>
  <path d="M780,1003L909,830L724,773Z" fill="rgb(210,210,210)" stroke="rgb(210,210,210)" stroke-width="1.51"/>
  <path d="M640,1104L636,1025L483,925Z" fill="rgb(198,198,198)" stroke="rgb(198,198,198)" stroke-width="1.51"/>
  <path d="M-7,716L-114,842L30,761Z" fill="rgb(105,105,105)" stroke="rgb(105,105,105)" stroke-width="1.51"/>
  <path d="M-153,274L-169,577L-8,424Z" fill="rgb(72,72,72)" stroke="rgb(72,72,72)" stroke-width="1.51"/>
  <path d="M17,881L114,1009L178,888Z" fill="rgb(132,132,132)" stroke="rgb(132,132,132)" stroke-width="1.51"/>
  <path d="M780,1003L657,935L643,1019Z" fill="rgb(213,213,213)" stroke="rgb(213,213,213)" stroke-width="1.51"/>
  <path d="M780,1003L724,773L657,935Z" fill="rgb(214,214,214)" stroke="rgb(214,214,214)" stroke-width="1.51"/>
  <path d="M878,623L909,830L967,453Z" fill="rgb(185,185,185)" stroke="rgb(185,185,185)" stroke-width="1.51"/>
  <path d="M-169,577L-178,618L18,554Z" fill="rgb(87,87,87)" stroke="rgb(87,87,87)" stroke-width="1.51"/>
  <path d="M-19,207L-153,274L20,320Z" fill="rgb(58,58,58)" stroke="rgb(58,58,58)" stroke-width="1.51"/>
  <path d="M-169,577L-153,274L-178,618Z" fill="rgb(78,78,78)" stroke="rgb(78,78,78)" stroke-width="1.51"/>
  <path d="M-32,-14L-89,158L78,152Z" fill="rgb(43,43,43)" stroke="rgb(43,43,43)" stroke-width="1.51"/>
  <path d="M-89,158L-153,274L-19,207Z" fill="rgb(53,53,53)" stroke="rgb(53,53,53)" stroke-width="1.51"/>
  <path d="M232,63L174,-68L78,152Z" fill="rgb(57,57,57)" stroke="rgb(57,57,57)" stroke-width="1.51"/>
  <path d="M311,-179L232,63L465,22Z" fill="rgb(73,73,73)" stroke="rgb(73,73,73)" stroke-width="1.51"/>
  <path d="M640,1104L780,1003L643,1019Z" fill="rgb(212,212,212)" stroke="rgb(212,212,212)" stroke-width="1.51"/>
  <path d="M-178,618L-114,842L-7,716Z" fill="rgb(101,101,101)" stroke="rgb(101,101,101)" stroke-width="1.51"/>
  <path d="M17,881L-116,923L114,1009Z" fill="rgb(119,119,119)" stroke="rgb(119,119,119)" stroke-width="1.51"/>
  <path d="M636,1025L640,1104L643,1019Z" fill="rgb(205,205,205)" stroke="rgb(205,205,205)" stroke-width="1.51"/>
  <path d="M321,1034L640,1104L483,925Z" fill="rgb(183,183,183)" stroke="rgb(183,183,183)" stroke-width="1.51"/>
  <path d="M329,1178L640,1104L321,1034Z" fill="rgb(176,176,176)" stroke="rgb(176,176,176)" stroke-width="1.51"/>
  <path d="M114,1009L237,1136L321,1034Z" fill="rgb(147,147,147)" stroke="rgb(147,147,147)" stroke-width="1.51"/>
  <path d="M198,1142L237,1136L114,1009Z" fill="rgb(142,142,142)" stroke="rgb(142,142,142)" stroke-width="1.51"/>
  <path d="M768,131L861,14L619,-25Z" fill="rgb(122,122,122)" stroke="rgb(122,122,122)" stroke-width="1.51"/>
  <path d="M979,88L768,131L858,306Z" fill="rgb(136,136,136)" stroke="rgb(136,136,136)" stroke-width="1.51"/>
  <path d="M619,-25L508,-165L483,26Z" fill="rgb(97,97,97)" stroke="rgb(97,97,97)" stroke-width="1.51"/>
  <path d="M567,-171L508,-165L619,-25Z" fill="rgb(101,101,101)" stroke="rgb(101,101,101)" stroke-width="1.51"/>
  <path d="M-165,916L-116,923L-114,842Z" fill="rgb(118,118,118)" stroke="rgb(118,118,118)" stroke-width="1.51"/>
  <path d="M-114,842L-116,923L17,881Z" fill="rgb(116,116,116)" stroke="rgb(116,116,116)" stroke-width="1.51"/>
  <path d="M-18,1214L198,1142L114,1009Z" fill="rgb(131,131,131)" stroke="rgb(131,131,131)" stroke-width="1.51"/>
  <path d="M237,1136L329,1178L321,1034Z" fill="rgb(157,157,157)" stroke="rgb(157,157,157)" stroke-width="1.51"/>
  <path d="M174,-68L-32,-14L78,152Z" fill="rgb(45,45,45)" stroke="rgb(45,45,45)" stroke-width="1.51"/>
  <path d="M-89,158L-158,18L-153,274Z" fill="rgb(48,48,48)" stroke="rgb(48,48,48)" stroke-width="1.51"/>
  <path d="M-85,-87L-32,-14L174,-68Z" fill="rgb(37,37,37)" stroke="rgb(37,37,37)" stroke-width="1.51"/>
  <path d="M198,1142L329,1178L237,1136Z" fill="rgb(152,152,152)" stroke="rgb(152,152,152)" stroke-width="1.51"/>
  <path d="M508,-165L311,-179L465,22Z" fill="rgb(84,84,84)" stroke="rgb(84,84,84)" stroke-width="1.51"/>
  <path d="M508,-165L389,-268L311,-179Z" fill="rgb(81,81,81)" stroke="rgb(81,81,81)" stroke-width="1.51"/>
  <path d="M803,-109L567,-171L619,-25Z" fill="rgb(113,113,113)" stroke="rgb(113,113,113)" stroke-width="1.51"/>
  <path d="M861,14L803,-109L619,-25Z" fill="rgb(118,118,118)" stroke="rgb(118,118,118)" stroke-width="1.51"/>
  <path d="M967,453L979,88L858,306Z" fill="rgb(147,147,147)" stroke="rgb(147,147,147)" stroke-width="1.51"/>
  <path d="M-215,910L-165,916L-114,842Z" fill="rgb(117,117,117)" stroke="rgb(117,117,117)" stroke-width="1.51"/>
  <path d="M-116,923L-18,1214L114,1009Z" fill="rgb(118,118,118)" stroke="rgb(118,118,118)" stroke-width="1.51"/>
  <path d="M979,88L803,-109L861,14Z" fill="rgb(118,118,118)" stroke="rgb(118,118,118)" stroke-width="1.51"/>
  <path d="M-85,-87L-158,18L-32,-14Z" fill="rgb(35,35,35)" stroke="rgb(35,35,35)" stroke-width="1.51"/>
  <path d="M-32,-14L-158,18L-89,158Z" fill="rgb(39,39,39)" stroke="rgb(39,39,39)" stroke-width="1.51"/>
  <path d="M-153,274L-158,18L-178,618Z" fill="rgb(61,61,61)" stroke="rgb(61,61,61)" stroke-width="1.51"/>
  <path d="M-178,618L-215,910L-114,842Z" fill="rgb(107,107,107)" stroke="rgb(107,107,107)" stroke-width="1.51"/>
  <path d="M-255,1122L-18,1214L-116,923Z" fill="rgb(118,118,118)" stroke="rgb(118,118,118)" stroke-width="1.51"/>
  <path d="M-255,1122L-215,910L-178,618Z" fill="rgb(116,116,116)" stroke="rgb(116,116,116)" stroke-width="1.51"/>
  <path d="M191,-242L-85,-87L174,-68Z" fill="rgb(45,45,45)" stroke="rgb(45,45,45)" stroke-width="1.51"/>
  <path d="M567,-171L389,-268L508,-165Z" fill="rgb(91,91,91)" stroke="rgb(91,91,91)" stroke-width="1.51"/>
  <path d="M311,-179L191,-242L174,-68Z" fill="rgb(60,60,60)" stroke="rgb(60,60,60)" stroke-width="1.51"/>
  <path d="M727,-290L389,-268L567,-171Z" fill="rgb(101,101,101)" stroke="rgb(101,101,101)" stroke-width="1.51"/>
  <path d="M298,-317L191,-242L311,-179Z" fill="rgb(65,65,65)" stroke="rgb(65,65,65)" stroke-width="1.51"/>
  <path d="M780,1003L782,1200L909,830Z" fill="rgb(214,214,214)" stroke="rgb(214,214,214)" stroke-width="1.51"/>
  <path d="M640,1104L782,1200L780,1003Z" fill="rgb(214,214,214)" stroke="rgb(214,214,214)" stroke-width="1.51"/>
  <path d="M329,1178L782,1200L640,1104Z" fill="rgb(197,197,197)" stroke="rgb(197,197,197)" stroke-width="1.51"/>
  <path d="M191,-242L-90,-244L-85,-87Z" fill="rgb(35,35,35)" stroke="rgb(35,35,35)" stroke-width="1.51"/>
  <path d="M389,-268L298,-317L311,-179Z" fill="rgb(73,73,73)" stroke="rgb(73,73,73)" stroke-width="1.51"/>
  <path d="M727,-290L298,-317L389,-268Z" fill="rgb(89,89,89)" stroke="rgb(89,89,89)" stroke-width="1.51"/>
  <path d="M198,1142L-18,1214L329,1178Z" fill="rgb(140,140,140)" stroke="rgb(140,140,140)" stroke-width="1.51"/>
  <path d="M329,1178L-18,1214L782,1200Z" fill="rgb(167,167,167)" stroke="rgb(167,167,167)" stroke-width="1.51"/>
  <path d="M-255,1122L-116,923L-165,916Z" fill="rgb(118,118,118)" stroke="rgb(118,118,118)" stroke-width="1.51"/>
  <path d="M803,-109L727,-290L567,-171Z" fill="rgb(118,118,118)" stroke="rgb(118,118,118)" stroke-width="1.51"/>
  <path d="M979,88L803,-235L803,-109Z" fill="rgb(118,118,118)" stroke="rgb(118,118,118)" stroke-width="1.51"/>
  <path d="M803,-235L727,-290L803,-109Z" fill="rgb(118,118,118)" stroke="rgb(118,118,118)" stroke-width="1.51"/>
  <path d="M-34,-312L-90,-244L191,-242Z" fill="rgb(37,37,37)" stroke="rgb(37,37,37)" stroke-width="1.51"/>
  <path d="M-85,-87L-90,-244L-158,18Z" fill="rgb(35,35,35)" stroke="rgb(35,35,35)" stroke-width="1.51"/>
  <path d="M-158,18L-255,1122L-178,618Z" fill="rgb(87,87,87)" stroke="rgb(87,87,87)" stroke-width="1.51"/>
  <path d="M-215,910L-255,1122L-165,916Z" fill="rgb(118,118,118)" stroke="rgb(118,118,118)" stroke-width="1.51"/>
  <path d="M298,-317L-34,-312L191,-242Z" fill="rgb(52,52,52)" stroke="rgb(52,52,52)" stroke-width="1.51"/>
</svg>