<svg id="visual" viewBox="0 0 960 540" width="960" height="540"
  xmlns="http://www.w3.org/2000/svg"
  xmlns:xlink="http://www.w3.org/1999/xlink" version="1.1">
  <g transform="translate(1001.0932689444636 535.8283663662093)">
    <path d="M119.6 -183.1C133.4 -154.6 108.1 -90.7 92.3 -50.9C76.6 -11 70.4 4.9 71 29.2C71.6 53.5 79 86.2 68.3 124.8C57.6 163.3 28.8 207.6 -3.3 212.2C-35.5 216.8 -70.9 181.6 -112.3 153.1C-153.7 124.5 -200.9 102.6 -205.4 71C-209.9 39.3 -171.5 -2 -152.8 -46.5C-134 -91.1 -134.9 -139 -112.7 -164.8C-90.5 -190.6 -45.3 -194.3 3.8 -199.6C52.9 -204.8 105.8 -211.6 119.6 -183.1" fill="#898989"></path>
  </g>
  <path d="M272 0L245 12.8C218 25.7 164 51.3 127.8 77C91.7 102.7 73.3 128.3 74 154C74.7 179.7 94.3 205.3 94.2 231.2C94 257 74 283 95 308.8C116 334.7 178 360.3 189.3 386C200.7 411.7 161.3 437.3 129.5 463C97.7 488.7 73.3 514.3 61.2 527.2L49 540L0 540L0 527.2C0 514.3 0 488.7 0 463C0 437.3 0 411.7 0 386C0 360.3 0 334.7 0 308.8C0 283 0 257 0 231.2C0 205.3 0 179.7 0 154C0 128.3 0 102.7 0 77C0 51.3 0 25.7 0 12.8L0 0Z" fill="#898989" stroke-linecap="round" stroke-linejoin="miter"></path>
</svg>