<svg id="visual" viewBox="0 0 960 540" width="960" height="540" xmlns="http://www.w3.org/2000/svg" xmlns:xlink="http://www.w3.org/1999/xlink" version="1.1"><path d="M0 114L120 114L120 128L240 128L240 79L360 79L360 107L480 107L480 129L600 129L600 128L720 128L720 118L840 118L840 103L960 103L960 130L960 541L960 541L840 541L840 541L720 541L720 541L600 541L600 541L480 541L480 541L360 541L360 541L240 541L240 541L120 541L120 541L0 541Z" fill="#191919"></path><path d="M0 221L120 221L120 166L240 166L240 202L360 202L360 190L480 190L480 188L600 188L600 260L720 260L720 177L840 177L840 198L960 198L960 233L960 541L960 541L840 541L840 541L720 541L720 541L600 541L600 541L480 541L480 541L360 541L360 541L240 541L240 541L120 541L120 541L0 541Z" fill="#1a1a1a"></path><path d="M0 342L120 342L120 323L240 323L240 257L360 257L360 304L480 304L480 280L600 280L600 300L720 300L720 336L840 336L840 288L960 288L960 314L960 541L960 541L840 541L840 541L720 541L720 541L600 541L600 541L480 541L480 541L360 541L360 541L240 541L240 541L120 541L120 541L0 541Z" fill="#1c1c1c"></path><path d="M0 388L120 388L120 366L240 366L240 418L360 418L360 410L480 410L480 321L600 321L600 424L720 424L720 323L840 323L840 419L960 419L960 328L960 541L960 541L840 541L840 541L720 541L720 541L600 541L600 541L480 541L480 541L360 541L360 541L240 541L240 541L120 541L120 541L0 541Z" fill="#1d1d1d"></path><path d="M0 454L120 454L120 422L240 422L240 433L360 433L360 467L480 467L480 459L600 459L600 466L720 466L720 424L840 424L840 462L960 462L960 489L960 541L960 541L840 541L840 541L720 541L720 541L600 541L600 541L480 541L480 541L360 541L360 541L240 541L240 541L120 541L120 541L0 541Z" fill="#1f1f1f"></path></svg>