<svg id="visual" viewBox="0 0 540 960" width="540" height="960"
  xmlns="http://www.w3.org/2000/svg"
  xmlns:xlink="http://www.w3.org/1999/xlink" version="1.1">
  <g transform="translate(47.69559240407787 -33.69572145800103)">
    <path d="M124.7 -168.3C167.5 -140.5 212.1 -112 202.4 -80.3C192.6 -48.7 128.4 -13.9 100.5 20.5C72.6 54.9 81 88.9 70.3 111.3C59.6 133.6 29.8 144.3 -3.2 148.8C-36.2 153.2 -72.5 151.4 -89.5 131.1C-106.4 110.8 -104.1 71.9 -115.4 37.4C-126.8 2.9 -151.9 -27.3 -147 -49.5C-142.2 -71.8 -107.6 -86 -78.1 -118.1C-48.6 -150.2 -24.3 -200.1 8.3 -211.6C40.9 -223 81.9 -196.1 124.7 -168.3" fill="#898989"></path>
  </g>
  <g transform="translate(511.9419280347056 991.7580681450061)">
    <path d="M104.8 -146.4C165.5 -100.1 264.9 -109.2 286 -83.6C307.2 -58 250.1 2.4 228.6 76C207.1 149.7 221.1 236.6 188.9 296.5C156.7 356.4 78.4 389.2 -3.1 393.5C-84.6 397.8 -169.3 373.7 -227.8 322.3C-286.3 271 -318.6 192.5 -347.6 111.1C-376.6 29.7 -402.3 -54.7 -373.3 -114.3C-344.3 -173.9 -260.6 -208.7 -189.3 -251.5C-117.9 -294.3 -59 -345.2 -18.5 -319.8C22 -294.3 44.1 -192.7 104.8 -146.4" fill="#898989"></path>
  </g>
</svg>